<svg width="68" height="68" viewBox="0 0 68 68" fill="none" xmlns="http://www.w3.org/2000/svg">
<path d="M34 67.0745C32.0074 67.0745 30.1414 66.325 28.7498 64.9192L23.9424 60.1705C23.5628 59.7957 22.5507 59.3895 22.0447 59.3895H15.213C11.1014 59.3895 7.78043 56.1089 7.78043 52.0476V45.2998C7.78043 44.8 7.36927 43.8003 6.98974 43.4254L2.18233 38.6767C0.790698 37.3021 0 35.4586 0 33.4904C0 31.5222 0.75907 29.679 2.18233 28.3044L6.98974 23.5557C7.36927 23.1808 7.78043 22.1812 7.78043 21.6813V14.9336C7.78043 10.8722 11.1014 7.5916 15.213 7.5916H22.0447C22.5507 7.5916 23.5628 7.18547 23.9424 6.81057L28.7498 2.06191C31.533 -0.687303 36.467 -0.687303 39.2502 2.06191L44.0577 6.81057C44.4372 7.18547 45.4493 7.5916 45.9553 7.5916H52.787C56.8986 7.5916 60.2195 10.8722 60.2195 14.9336V21.6813C60.2195 22.1812 60.6307 23.1808 61.0102 23.5557L65.8177 28.3044C67.2093 29.679 68 31.5222 68 33.4904C68 35.4586 67.2409 37.3021 65.8177 38.6767L61.0102 43.4254C60.6307 43.8003 60.2195 44.8 60.2195 45.2998V52.0476C60.2195 56.1089 56.8986 59.3895 52.787 59.3895H45.9553C45.4493 59.3895 44.4372 59.7957 44.0577 60.1705L39.2502 64.9192C37.8586 66.325 35.9926 67.0745 34 67.0745ZM10.3423 40.1135C11.6074 41.3631 12.5246 43.5503 12.5246 45.2998V52.0476C12.5246 53.5159 13.7265 54.7034 15.213 54.7034H22.0447C23.8158 54.7034 26.0298 55.609 27.2949 56.8587L32.1023 61.6073C33.1144 62.607 34.8856 62.607 35.8977 61.6073L40.7051 56.8587C41.9702 55.609 44.1842 54.7034 45.9553 54.7034H52.787C54.2735 54.7034 55.4754 53.5159 55.4754 52.0476V45.2998C55.4754 43.5503 56.3926 41.3631 57.6577 40.1135L62.4651 35.3649C62.9712 34.865 63.2558 34.2089 63.2558 33.4904C63.2558 32.7719 62.9712 32.1161 62.4651 31.6163L57.6577 26.8675C56.3926 25.6178 55.4754 23.4308 55.4754 21.6813V14.9336C55.4754 13.4652 54.2735 12.2778 52.787 12.2778H45.9553C44.1842 12.2778 41.9702 11.3719 40.7051 10.1223L35.8977 5.37361C34.8856 4.3739 33.1144 4.3739 32.1023 5.37361L27.2949 10.1223C26.0298 11.3719 23.8158 12.2778 22.0447 12.2778H15.213C13.7265 12.2778 12.5246 13.4652 12.5246 14.9336V21.6813C12.5246 23.4308 11.6074 25.6178 10.3423 26.8675L5.53488 31.6163C5.02884 32.1161 4.74419 32.7719 4.74419 33.4904C4.74419 34.2089 5.02884 34.865 5.53488 35.3649L10.3423 40.1135Z" fill="#363636"/>
<path d="M43.4889 45.9875C41.7178 45.9875 40.2945 44.5816 40.2945 42.8634C40.2945 41.1451 41.7178 39.7393 43.4573 39.7393C45.1968 39.7393 46.6201 41.1451 46.6201 42.8634C46.6201 44.5816 45.2284 45.9875 43.4889 45.9875Z" fill="#363636"/>
<path d="M24.5431 27.2429C22.772 27.2429 21.3487 25.837 21.3487 24.1188C21.3487 22.4005 22.7719 20.9947 24.5115 20.9947C26.251 20.9947 27.6743 22.4005 27.6743 24.1188C27.6743 25.837 26.2827 27.2429 24.5431 27.2429Z" fill="#363636"/>
<path d="M24.5099 45.2064C23.9089 45.2064 23.308 44.9877 22.8336 44.5191C21.9164 43.6131 21.9164 42.1132 22.8336 41.2072L41.8105 22.4628C42.7277 21.5568 44.2459 21.5568 45.1631 22.4628C46.0803 23.3687 46.0803 24.8685 45.1631 25.7745L26.1862 44.5191C25.7117 44.9877 25.1108 45.2064 24.5099 45.2064Z" fill="#363636"/>
</svg>
