<svg width="68" height="41" viewBox="0 0 68 41" fill="none" xmlns="http://www.w3.org/2000/svg">
<path d="M34 0C36.6301 0 39.1524 1.03201 41.0121 2.869C42.8719 4.70598 43.9167 7.19747 43.9167 9.79536C43.9167 12.3933 42.8719 14.8847 41.0121 16.7217C39.1524 18.5587 36.6301 19.5907 34 19.5907C31.3699 19.5907 28.8476 18.5587 26.9879 16.7217C25.1281 14.8847 24.0833 12.3933 24.0833 9.79536C24.0833 7.19747 25.1281 4.70598 26.9879 2.869C28.8476 1.03201 31.3699 0 34 0ZM14.1667 6.99669C15.7533 6.99669 17.2267 7.41649 18.5017 8.17213C18.0767 12.1742 19.2667 16.1484 21.7033 19.2549C20.2867 21.9416 17.4533 23.7887 14.1667 23.7887C11.9123 23.7887 9.75032 22.9042 8.15626 21.3296C6.5622 19.755 5.66667 17.6195 5.66667 15.3927C5.66667 13.1659 6.5622 11.0304 8.15626 9.45582C9.75032 7.88126 11.9123 6.99669 14.1667 6.99669ZM53.8333 6.99669C56.0877 6.99669 58.2497 7.88126 59.8437 9.45582C61.4378 11.0304 62.3333 13.1659 62.3333 15.3927C62.3333 17.6195 61.4378 19.755 59.8437 21.3296C58.2497 22.9042 56.0877 23.7887 53.8333 23.7887C50.5467 23.7887 47.7133 21.9416 46.2967 19.2549C48.7333 16.1484 49.9233 12.1742 49.4983 8.17213C50.7733 7.41649 52.2467 6.99669 53.8333 6.99669ZM15.5833 35.6831C15.5833 29.8898 23.8283 25.1881 34 25.1881C44.1717 25.1881 52.4167 29.8898 52.4167 35.6831V40.5808H15.5833V35.6831ZM0 40.5808V36.3828C0 32.4926 5.355 29.2182 12.6083 28.2666C10.9367 30.1697 9.91667 32.8005 9.91667 35.6831V40.5808H0ZM68 40.5808H58.0833V35.6831C58.0833 32.8005 57.0633 30.1697 55.3917 28.2666C62.645 29.2182 68 32.4926 68 36.3828V40.5808Z" fill="#363636"/>
</svg>
